<?xml version="1.0" standalone="no"?>
<!DOCTYPE svg PUBLIC "-//W3C//DTD SVG 20010904//EN"
 "http://www.w3.org/TR/2001/REC-SVG-20010904/DTD/svg10.dtd">
<svg version="1.0" xmlns="http://www.w3.org/2000/svg"
 width="434.000000pt" height="607.000000pt" viewBox="0 0 434.000000 607.000000"
 preserveAspectRatio="xMidYMid meet">

<g transform="translate(0.000000,607.000000) scale(0.100000,-0.100000)"
fill="#000000" stroke="none">
<path d="M2485 5550 c-3 -5 -3 -10 2 -10 4 0 1 -4 -7 -10 -8 -5 -11 -13 -6
-17 7 -8 36 23 36 39 0 11 -18 10 -25 -2z"/>
<path fill="red" d="M1688 5474 c-13 -6 -44 -14 -69 -18 -26 -4 -55 -13 -65 -21 -11 -8
-25 -15 -33 -15 -7 0 -29 -14 -48 -30 -19 -17 -38 -28 -43 -25 -5 3 -11 1 -15
-5 -3 -5 0 -10 7 -11 7 0 3 -4 -9 -9 -13 -6 -23 -18 -23 -30 0 -11 -6 -20 -12
-20 -7 0 -22 -13 -33 -30 -11 -16 -29 -34 -41 -41 -12 -6 -32 -31 -45 -56 -13
-25 -30 -54 -37 -66 -17 -28 -8 -168 15 -252 19 -69 21 -178 4 -199 -9 -11
-10 -20 -2 -33 6 -11 11 -13 11 -5 0 7 4 11 8 8 5 -3 9 0 9 7 1 7 4 48 6 93 3
45 12 108 20 140 8 32 18 76 21 97 4 20 11 37 15 37 5 0 9 15 8 34 0 18 12 59
29 92 23 48 35 60 59 65 57 12 161 9 215 -7 30 -8 82 -21 115 -27 71 -14 116
-44 151 -98 14 -22 35 -44 48 -48 12 -5 29 -20 37 -33 25 -39 59 -143 59 -180
0 -22 7 -41 20 -53 25 -23 35 -77 21 -113 -17 -42 -23 -101 -16 -149 8 -53 21
-52 52 3 13 21 23 32 23 24 -1 -8 -7 -23 -15 -33 -7 -11 -11 -25 -8 -33 3 -9
0 -12 -9 -9 -27 10 -43 -33 -52 -142 -2 -13 -6 -26 -9 -30 -10 -10 -8 -93 2
-93 4 0 11 19 14 41 5 38 37 91 37 61 0 -7 -5 -12 -11 -12 -5 0 -7 -5 -4 -11
13 -19 -6 -80 -31 -101 -27 -24 -31 -38 -10 -38 22 0 26 -13 10 -35 -13 -17
-16 -18 -24 -5 -8 12 -10 10 -10 -8 0 -13 6 -30 14 -38 18 -18 26 -18 26 0 0
8 7 16 14 19 10 4 13 1 9 -9 -3 -7 -1 -14 5 -14 6 0 8 -8 5 -19 -3 -13 14 -38
61 -84 58 -59 65 -63 69 -44 2 12 3 8 1 -10 -2 -31 -1 -32 42 -39 33 -5 49 -2
62 8 21 19 48 28 56 21 8 -8 -14 -34 -24 -28 -4 3 -10 -2 -14 -10 -4 -10 1
-15 14 -15 11 0 19 6 18 13 -2 6 4 10 12 8 8 -2 28 -3 44 -2 l30 2 -24 -21
c-17 -15 -26 -17 -37 -9 -9 9 -13 9 -13 0 0 -11 13 -15 39 -12 7 2 11 -1 8 -6
-7 -10 64 -10 114 1 30 6 36 12 32 27 -4 15 0 19 20 19 14 0 27 -4 29 -10 4
-12 117 58 138 86 14 18 14 18 -5 4 -19 -14 -19 -14 -6 2 7 10 17 15 22 12 13
-8 101 117 96 138 -3 9 0 19 7 22 7 3 8 7 1 13 -6 4 -11 29 -13 56 -2 37 1 47
13 47 8 0 15 -9 15 -19 0 -11 5 -23 11 -26 7 -5 8 7 4 39 -5 31 -4 46 4 46 14
0 15 106 1 115 -5 3 -10 0 -10 -8 0 -8 -9 -22 -20 -32 -18 -16 -20 -16 -20 -2
0 10 -4 17 -10 17 -5 0 -10 11 -10 25 0 14 5 24 12 23 7 -2 18 13 24 32 7 19
13 29 13 21 1 -8 3 -12 6 -9 8 8 -31 94 -66 145 -30 43 -33 45 -46 28 -8 -11
-16 -15 -21 -9 -15 17 -32 64 -23 64 5 0 12 -6 14 -12 4 -9 6 -9 6 -1 1 17
-48 53 -65 46 -8 -3 -14 1 -14 11 0 19 -36 40 -56 32 -8 -3 -14 1 -14 9 0 20
-100 48 -184 50 -58 2 -71 6 -77 21 -3 11 -5 22 -3 25 1 3 -10 13 -27 23 -29
17 -29 17 -29 -8 0 -29 -19 -76 -32 -76 -4 0 -8 5 -8 10 0 6 4 10 9 10 5 0 12
19 15 43 11 86 23 152 25 136 0 -9 8 -19 16 -23 12 -4 15 5 17 47 1 29 2 61 3
72 3 43 -46 103 -59 72 -2 -7 -5 -2 -5 10 -1 21 3 23 39 20 22 -2 40 0 40 5 0
10 -1 4 10 51 6 31 6 36 -5 27 -10 -8 -15 -8 -20 0 -8 13 12 40 31 40 7 0 18
19 24 43 6 23 15 51 20 62 28 60 30 75 11 94 -19 19 -20 19 -60 -24 -22 -23
-37 -45 -34 -49 4 -3 -1 -6 -9 -6 -9 0 -21 -7 -29 -16 -10 -13 -10 -17 2 -25
12 -8 12 -10 0 -18 -8 -5 -19 -7 -25 -5 -6 2 -20 -9 -30 -23 -13 -17 -16 -28
-8 -31 6 -2 8 -10 5 -17 -3 -10 -20 3 -51 39 -61 71 -102 103 -138 111 -16 4
-47 13 -69 22 -41 15 -152 40 -237 52 -30 5 -55 3 -70 -5z m602 -240 c0 -9 -5
-14 -12 -12 -18 6 -21 28 -4 28 9 0 16 -7 16 -16z m41 -49 c0 -15 -30 -18 -46
-5 -24 20 -17 28 15 21 17 -3 31 -10 31 -16z m-14 -132 c-3 -10 -5 -4 -5 12 0
17 2 24 5 18 2 -7 2 -21 0 -30z m0 -70 c-3 -10 -5 -2 -5 17 0 19 2 27 5 18 2
-10 2 -26 0 -35z m-13 -269 c3 -8 10 -12 16 -9 5 3 10 1 10 -4 0 -6 7 -11 15
-11 8 0 15 -9 15 -20 0 -13 7 -20 20 -20 17 0 19 -4 14 -27 -4 -16 -9 -31 -11
-35 -6 -11 -43 -10 -43 1 0 13 -68 9 -73 -3 -2 -6 -2 -1 -1 11 2 12 -2 28 -10
36 -8 8 -13 23 -11 33 2 10 4 24 5 29 1 6 6 -1 13 -15 11 -24 11 -24 15 13 3
38 15 48 26 21z m306 6 c0 -5 -4 -10 -10 -10 -5 0 -10 5 -10 10 0 6 5 10 10
10 6 0 10 -4 10 -10z m130 -94 c0 -3 -4 -8 -10 -11 -5 -3 -10 -1 -10 4 0 6 5
11 10 11 6 0 10 -2 10 -4z m-485 -103 c-11 -70 -15 -83 -26 -83 -6 0 -7 5 -3
11 3 6 -5 3 -20 -6 -15 -10 -24 -20 -22 -23 3 -3 12 1 21 8 25 21 17 -3 -16
-48 -17 -23 -28 -46 -24 -52 3 -5 1 -10 -4 -10 -6 0 -11 5 -11 10 0 14 -17 12
-23 -3 -3 -9 4 -13 22 -12 14 1 32 -3 38 -8 19 -14 29 21 14 45 -11 17 -9 23
8 39 12 11 21 24 21 29 0 16 27 11 34 -5 3 -9 0 -15 -9 -15 -8 0 -15 -9 -15
-21 0 -11 4 -18 8 -15 5 3 9 -17 11 -45 1 -27 -2 -49 -8 -49 -5 0 -11 4 -13
10 -1 5 -13 7 -25 4 -13 -4 -20 -10 -17 -15 3 -5 0 -9 -5 -9 -6 0 -11 5 -11
10 0 6 -10 10 -23 10 -44 0 -67 57 -27 67 10 3 22 14 25 24 4 10 11 19 16 19
5 0 3 10 -5 23 -18 26 -6 53 18 44 18 -7 46 27 46 56 0 15 18 45 28 47 2 0 0
-17 -3 -37z m-15 -323 c0 -5 -9 -10 -20 -10 -11 0 -20 5 -20 10 0 6 9 10 20
10 11 0 20 -4 20 -10z m-80 -265 c0 -8 -2 -15 -4 -15 -2 0 -6 7 -10 15 -3 8
-1 15 4 15 6 0 10 -7 10 -15z m580 -55 c0 -5 -4 -10 -10 -10 -5 0 -10 5 -10
10 0 6 5 10 10 10 6 0 10 -4 10 -10z"/>
<path d="M3585 5460 l-29 -30 31 0 c33 0 49 21 35 46 -6 11 -14 8 -37 -16z"/>
<path d="M3590 5390 c0 -5 8 -10 18 -11 14 0 14 -2 -3 -9 -16 -7 -17 -9 -3 -9
20 -1 30 11 20 24 -10 14 -32 17 -32 5z"/>
<path fill="red" d="M3472 5325 c-17 -23 -32 -51 -32 -61 0 -14 -3 -15 -9 -6 -20 32 -219
-348 -246 -470 -2 -13 -12 -50 -21 -83 -26 -101 -27 -105 -15 -105 7 0 9 -5 5
-12 -10 -16 -15 -44 -17 -85 0 -18 -5 -30 -9 -27 -5 3 -9 -18 -8 -48 1 -29 1
-89 1 -133 -1 -44 3 -94 8 -112 5 -17 7 -34 3 -37 -3 -3 4 -6 15 -6 12 0 23 7
27 15 13 35 26 11 26 -50 0 -55 -3 -65 -17 -65 -16 -1 -16 -2 -2 -13 9 -7 14
-18 11 -25 -2 -7 2 -11 10 -10 8 2 14 -8 16 -23 5 -39 50 -77 96 -81 22 -2 41
-9 44 -16 5 -16 -20 -16 -36 0 -7 7 -12 8 -12 2 0 -17 30 -39 97 -73 47 -23
61 -27 56 -15 -5 14 -3 15 17 3 12 -8 32 -20 44 -26 30 -18 172 -16 237 3 159
47 298 173 343 313 31 95 43 220 26 265 -4 12 -14 41 -20 66 -19 65 -83 171
-130 213 -22 21 -43 37 -48 37 -4 0 -20 11 -36 25 -29 25 -39 29 -63 26 -7 -1
-13 2 -13 8 0 15 -58 32 -63 18 -3 -8 -11 -6 -25 7 -15 13 -40 19 -89 22 -57
2 -68 6 -75 23 -4 12 -11 21 -15 21 -4 0 -8 63 -8 139 0 76 3 137 8 134 4 -2
7 3 7 12 0 14 -2 14 -25 -1 -23 -15 -25 -15 -19 0 3 9 10 16 15 16 5 0 8 6 7
13 -2 6 2 11 8 10 13 -2 34 70 33 109 0 22 -1 22 -9 3 -8 -19 -9 -18 -9 4 -1
19 -4 21 -15 12 -16 -13 -42 -6 -50 15 -6 16 17 30 34 19 6 -4 10 5 10 22 0
16 -8 33 -18 39 -15 10 -22 5 -50 -31z m48 15 c0 -5 -7 -10 -16 -10 -8 0 -12
5 -9 10 3 6 10 10 16 10 5 0 9 -4 9 -10z m-160 -303 c0 -5 -4 -5 -10 -2 -5 3
-10 14 -10 23 0 15 2 15 10 2 5 -8 10 -19 10 -23z m-83 -159 c-3 -8 -6 -5 -6
6 -1 11 2 17 5 13 3 -3 4 -12 1 -19z m23 -909 c0 -16 -29 -36 -31 -21 0 4 -2
15 -4 24 -2 11 3 16 16 15 11 -1 19 -9 19 -18z m739 -2 c-2 -1 -13 -9 -24 -17
-19 -14 -19 -14 -6 3 7 9 18 17 24 17 6 0 8 -1 6 -3z"/>
<path d="M3601 5334 c0 -11 3 -14 6 -6 3 7 2 16 -1 19 -3 4 -6 -2 -5 -13z"/>
<path d="M2323 4883 c0 -25 4 -27 25 -15 15 10 6 39 -12 39 -8 0 -13 -11 -13
-24z"/>
<path d="M1365 4820 c-10 -16 2 -24 50 -38 22 -6 49 -18 60 -26 19 -15 17 -15
-28 -14 -32 1 -53 -4 -64 -14 -22 -23 -10 -34 49 -49 29 -6 61 -17 70 -23 14
-8 26 -6 53 8 19 11 35 23 35 27 0 4 -12 17 -26 28 -20 15 -22 21 -10 21 32 0
15 18 -41 43 -32 14 -69 28 -83 32 -14 4 -32 9 -42 11 -9 3 -19 0 -23 -6z m85
-94 c0 -2 -11 -6 -25 -8 -14 -3 -25 -1 -25 3 0 5 11 9 25 9 14 0 25 -2 25 -4z"/>
<path d="M1875 4780 c-11 -5 -33 -9 -49 -9 -36 -1 -96 -22 -96 -34 0 -4 -15
-21 -32 -38 -34 -30 -36 -45 -30 -149 5 -78 1 -140 -9 -140 -14 0 -48 -41 -49
-58 0 -8 14 -19 30 -25 46 -17 36 -25 -25 -20 -31 3 -55 1 -55 -4 0 -11 2 -11
77 -15 28 -2 54 -6 58 -10 4 -4 13 -4 21 -1 9 3 14 -2 14 -15 0 -15 -9 -21
-42 -27 -95 -16 -132 -14 -156 8 -13 12 -27 21 -30 19 -4 -1 -8 13 -10 32 -3
28 -9 36 -34 45 -49 17 -51 3 -8 -47 54 -61 71 -72 138 -87 66 -16 137 -5 169
24 11 10 38 30 61 45 23 14 42 31 42 36 0 6 9 10 20 10 24 0 26 18 4 48 l-16
23 -15 -20 c-14 -20 -15 -20 -38 -4 -13 10 -27 30 -30 46 -4 15 -19 42 -33 59
-35 42 -41 103 -10 111 18 5 19 8 9 21 -11 13 -10 17 3 22 24 9 65 9 119 0 48
-8 52 -19 12 -30 -11 -3 2 -4 29 -2 27 2 55 11 64 20 16 15 15 17 -6 23 -16 4
-21 11 -17 23 5 15 -4 20 -45 30 -27 7 -48 16 -45 20 7 11 90 4 115 -10 10 -5
28 -10 39 -10 l20 0 -20 34 c-35 59 -88 80 -144 56z m-55 -130 c0 -5 -2 -10
-4 -10 -3 0 -8 5 -11 10 -3 6 -1 10 4 10 6 0 11 -4 11 -10z"/>
<path d="M1221 4740 c0 -33 1 -34 11 -12 8 17 8 26 0 34 -9 9 -12 4 -11 -22z"/>
<path d="M2790 4610 c-8 -26 -7 -41 2 -32 6 6 8 16 5 24 -3 7 -6 11 -7 8z"/>
<path d="M1391 4434 c-17 -14 -31 -33 -31 -42 0 -13 5 -11 23 8 57 64 60 78 8
34z"/>
<path d="M1947 4304 c-4 -12 -23 -38 -42 -57 -19 -20 -35 -43 -35 -51 0 -8
-10 -20 -21 -27 -21 -11 -22 -10 -15 21 5 28 4 31 -9 20 -8 -7 -15 -17 -15
-23 0 -5 -8 -15 -17 -22 -15 -11 -15 -14 5 -35 42 -46 29 -61 -85 -99 -51 -16
-102 -35 -115 -42 -16 -9 -23 -9 -26 0 -5 16 -22 14 -22 -4 0 -18 3 -17 -38
-6 -46 14 -40 1 19 -37 27 -19 53 -40 55 -47 5 -12 26 -28 122 -89 20 -13 60
-27 89 -31 28 -4 59 -12 67 -18 18 -13 24 -60 12 -94 -12 -38 9 -26 63 33 53
58 116 144 106 144 -3 0 1 12 9 28 27 54 29 86 4 117 l-23 29 -5 -29 c-4 -22
-11 -30 -25 -30 -17 0 -21 9 -25 53 -3 29 -11 56 -18 61 -8 5 -9 16 -3 39 10
35 -2 53 -17 26 -9 -15 -10 -15 -17 5 -8 25 1 74 22 114 8 16 13 38 11 50 l-4
22 -7 -21z m-46 -105 c-5 -13 -10 -19 -10 -12 -1 15 10 45 15 40 3 -2 0 -15
-5 -28z"/>
<path d="M1975 4200 c-10 -11 -15 -26 -12 -35 10 -24 27 -17 27 11 0 14 4 23
10 19 6 -3 10 -2 10 4 0 20 -18 20 -35 1z"/>
<path d="M3141 4114 c0 -11 3 -14 6 -6 3 7 2 16 -1 19 -3 4 -6 -2 -5 -13z"/>
<path d="M1330 3859 c-13 -48 -4 -134 16 -164 8 -11 14 -27 14 -36 0 -21 51
-88 68 -89 16 0 16 1 -14 67 -35 78 -54 154 -54 213 0 61 -15 65 -30 9z"/>
<path d="M2304 3565 c10 -55 21 -70 28 -37 4 14 -26 92 -35 92 -2 0 2 -25 7
-55z"/>
<path d="M1265 3591 c-22 -10 -47 -27 -56 -37 -35 -41 -92 -129 -92 -143 0 -7
-13 -21 -29 -30 -37 -21 -38 -42 0 -32 15 5 41 16 57 24 17 9 45 21 63 28 18
6 47 30 65 53 58 75 62 75 146 32 31 -16 51 -22 49 -15 -5 16 -57 47 -78 48
-8 1 -24 13 -35 28 -50 67 -46 65 -90 44z"/>
<path d="M1933 3591 c-15 -24 -128 -81 -162 -81 -39 -1 -111 -48 -124 -82 -5
-14 -12 -15 -38 -8 -17 5 -41 16 -53 23 -11 8 -34 16 -51 20 l-30 5 24 -19
c13 -10 32 -19 42 -19 10 0 19 -5 19 -12 0 -6 3 -8 7 -5 3 4 12 2 19 -4 16
-13 94 -2 94 12 0 6 4 8 8 5 5 -3 37 1 71 9 34 8 89 16 121 17 33 2 60 6 60
11 0 4 9 7 20 7 11 0 29 9 40 20 11 11 20 17 20 13 0 -5 5 -1 10 8 10 17 60
15 60 -3 0 -5 4 -7 9 -4 5 3 14 -1 21 -9 7 -8 19 -15 26 -15 8 0 14 -4 14 -10
0 -5 27 -8 60 -7 74 3 65 14 -40 51 -41 15 -105 42 -141 61 -77 40 -90 42
-106 16z"/>
<path d="M1365 3590 c3 -5 8 -10 11 -10 2 0 4 5 4 10 0 6 -5 10 -11 10 -5 0
-7 -4 -4 -10z"/>
<path d="M2920 3384 c-6 -14 -10 -34 -10 -45 0 -11 -11 -42 -25 -69 -14 -27
-25 -57 -25 -67 0 -10 -9 -31 -20 -48 -11 -16 -19 -43 -19 -60 1 -21 3 -24 6
-10 3 11 11 27 18 35 31 35 81 172 88 243 5 53 1 59 -13 21z"/>
<path d="M2780 3272 c0 -11 -7 -25 -15 -32 -8 -7 -15 -18 -15 -25 0 -8 -6 -26
-14 -42 -36 -71 -45 -113 -48 -215 -2 -60 0 -108 4 -108 5 0 8 -26 7 -57 l-1
-58 -12 40 c-13 44 -37 50 -66 17 -8 -9 -32 -28 -52 -42 -20 -13 -42 -35 -48
-48 -8 -18 -16 -23 -33 -19 -12 3 -31 -1 -41 -9 -11 -8 -30 -14 -42 -14 -12 0
-41 -16 -65 -35 -23 -20 -51 -41 -63 -47 -12 -6 -65 -44 -118 -85 -54 -40
-102 -73 -108 -73 -5 0 -10 -4 -10 -9 0 -5 -6 -11 -12 -14 -7 -2 -1 -2 14 0
14 2 66 20 115 39 48 20 111 44 138 54 28 10 58 21 67 25 11 4 20 0 28 -14 10
-19 50 -153 63 -211 22 -99 35 -150 45 -180 7 -19 25 -89 41 -155 16 -66 41
-154 54 -195 26 -76 46 -175 28 -135 -8 18 -10 18 -16 3 -4 -9 -4 -21 -1 -26
12 -20 -92 -71 -144 -72 -14 0 -45 -7 -70 -15 l-45 -15 40 6 c190 29 217 37
263 81 7 7 20 13 28 13 8 0 14 4 14 10 0 5 10 18 21 29 23 21 23 29 -6 116
-32 97 -35 94 -32 -23 2 -77 0 -111 -7 -109 -7 2 -13 48 -16 113 -4 86 -10
118 -28 151 -12 23 -26 44 -32 48 -5 3 -10 13 -10 22 0 9 -6 24 -14 32 -7 9
-16 33 -20 54 -6 32 -3 40 20 62 32 30 26 55 -14 55 -26 0 -30 4 -35 36 -3 19
-3 42 0 50 7 20 57 18 76 -4 8 -9 41 -30 72 -47 l56 -29 -1 -55 c-3 -112 -4
-111 36 -51 36 54 36 54 29 135 -4 44 -11 99 -15 123 -6 37 -5 43 8 40 13 -2
16 -13 14 -43 -3 -39 27 -105 47 -105 4 0 11 -13 15 -30 6 -31 26 -42 26 -14
0 8 -4 12 -10 9 -5 -3 -10 -2 -10 3 0 6 12 13 28 17 35 8 155 65 149 71 -5 6
-110 -26 -121 -37 -6 -5 -22 -9 -37 -9 -26 0 -27 3 -31 55 -1 30 0 55 5 55 4
0 0 16 -8 36 -21 50 -19 71 8 78 12 3 31 12 42 20 69 54 151 101 168 98 4 -1
7 4 7 11 0 7 30 36 68 64 87 67 119 101 128 138 6 27 -3 20 -82 -56 -49 -47
-107 -98 -129 -115 -22 -16 -49 -37 -60 -47 -43 -38 -143 -95 -155 -87 -7 5
-19 6 -27 3 -11 -4 -13 1 -8 23 11 52 40 103 60 108 25 7 14 17 -27 25 -33 7
-54 41 -25 41 15 0 66 50 51 50 -5 0 -1 5 9 11 9 5 17 17 17 24 0 8 7 15 15
15 8 0 18 12 21 27 7 25 8 25 15 8 7 -18 8 -18 8 3 1 22 53 99 79 115 6 4 12
15 12 23 0 8 4 22 9 32 4 9 15 37 23 62 8 25 19 53 23 64 7 16 6 17 -13 7 -11
-6 -31 -32 -43 -58 -12 -27 -29 -63 -38 -82 -9 -18 -26 -37 -38 -42 -13 -5
-23 -15 -23 -23 0 -7 -7 -19 -15 -26 -8 -7 -15 -22 -15 -34 0 -11 -5 -28 -10
-36 -8 -11 -9 -7 -5 15 3 17 -6 2 -20 -32 -34 -80 -55 -90 -49 -23 3 31 22 83
51 142 58 117 87 218 63 218 -5 0 -10 -7 -10 -14 0 -20 -63 -127 -89 -150 -11
-10 -18 -22 -16 -26 5 -8 -23 -35 -30 -29 -6 6 -6 159 1 271 3 62 1 98 -5 103
-6 3 -11 -2 -11 -13z m-110 -632 c0 -17 -9 -39 -21 -51 -20 -20 -21 -29 -17
-110 l5 -88 -36 1 c-20 1 -57 -2 -83 -6 -46 -8 -47 -7 -64 25 -26 51 -27 100
-2 127 12 12 27 22 35 22 7 0 13 3 13 8 0 8 62 52 73 52 4 0 8 -10 8 -22 1
-21 2 -21 6 -3 4 19 60 74 76 75 4 0 7 -13 7 -30z m27 8 c-3 -8 -6 -5 -6 6 -1
11 2 17 5 13 3 -3 4 -12 1 -19z m4 -307 c6 9 9 -2 9 -31 0 -25 -5 -52 -10 -60
-7 -11 -10 -6 -10 20 0 19 -3 46 -5 60 -3 14 -2 19 1 11 5 -11 8 -11 15 0z"/>
<path d="M2572 2450 c0 -19 2 -27 5 -17 2 9 2 25 0 35 -3 9 -5 1 -5 -18z"/>
<path d="M1788 3053 c-5 -68 -3 -82 8 -70 11 11 17 137 7 137 -6 0 -13 -30
-15 -67z"/>
<path d="M1783 2675 c0 -27 2 -38 4 -22 2 15 2 37 0 50 -2 12 -4 0 -4 -28z"/>
<path d="M720 2700 c-15 -9 5 -66 71 -205 16 -33 29 -67 29 -75 0 -13 2 -13 9
-1 13 20 25 -27 19 -74 -3 -29 -1 -34 12 -30 22 7 18 -48 -4 -71 -9 -9 -23
-31 -31 -50 -8 -19 -19 -34 -24 -34 -6 0 -11 -6 -11 -14 0 -16 -27 -29 -41
-20 -14 8 -10 -14 7 -41 9 -13 13 -29 9 -35 -5 -8 10 -9 52 -5 56 7 59 6 101
-30 23 -20 42 -35 42 -33 0 2 -10 24 -22 49 -18 37 -22 63 -23 154 0 61 2 124
6 140 4 17 10 64 13 105 l6 76 -26 2 c-25 2 -26 0 -21 -33 l6 -35 -23 27 c-13
16 -33 47 -44 69 -12 23 -27 48 -35 55 -23 23 -47 82 -42 99 5 17 -14 23 -35
10z"/>
<path d="M781 2634 c0 -11 3 -14 6 -6 3 7 2 16 -1 19 -3 4 -6 -2 -5 -13z"/>
<path d="M3297 2608 c4 -7 9 -22 10 -33 2 -11 8 -21 13 -23 6 -2 10 -15 10
-28 0 -13 5 -24 10 -24 18 0 11 67 -11 94 -20 26 -47 37 -32 14z"/>
<path d="M905 2570 c-3 -5 -1 -10 4 -10 6 0 11 5 11 10 0 6 -2 10 -4 10 -3 0
-8 -4 -11 -10z"/>
<path d="M1783 2530 c0 -30 2 -43 4 -27 2 15 2 39 0 55 -2 15 -4 2 -4 -28z"/>
<path d="M3161 2544 c0 -11 3 -14 6 -6 3 7 2 16 -1 19 -3 4 -6 -2 -5 -13z"/>
<path d="M3180 2530 c0 -11 4 -20 9 -20 5 0 7 9 4 20 -3 11 -7 20 -9 20 -2 0
-4 -9 -4 -20z"/>
<path d="M3257 2537 c-4 -10 -7 -31 -8 -45 0 -15 -3 -22 -5 -15 -9 21 -31 3
-27 -22 4 -18 0 -24 -18 -27 -13 -3 1 -4 32 -4 41 1 55 4 52 14 -3 7 -8 36
-12 65 -4 36 -9 46 -14 34z"/>
<path d="M888 2533 c6 -2 18 -2 25 0 6 3 1 5 -13 5 -14 0 -19 -2 -12 -5z"/>
<path d="M3310 2420 c0 -5 4 -10 9 -10 6 0 13 5 16 10 3 6 -1 10 -9 10 -9 0
-16 -4 -16 -10z"/>
<path d="M1781 2393 c-1 -17 4 -35 9 -38 11 -7 11 9 0 45 -8 24 -8 24 -9 -7z"/>
<path d="M3206 2382 c-10 -15 -45 -42 -77 -61 -85 -49 -64 -51 26 -2 74 40
145 55 145 30 0 -6 10 -19 22 -28 25 -21 17 -41 -18 -41 -13 0 -24 -4 -24 -10
0 -5 11 -10 25 -10 15 0 25 -6 25 -14 0 -16 42 -46 66 -46 13 0 14 -3 4 -15
-7 -8 -18 -15 -25 -15 -7 0 -18 -7 -25 -15 -19 -23 -99 -56 -145 -61 -125 -11
-249 -80 -259 -143 -7 -43 -2 -49 21 -26 10 10 38 27 63 37 63 27 94 42 100
49 3 3 14 11 25 17 44 27 -41 -1 -108 -35 -38 -19 -74 -32 -80 -30 -10 4 47
33 168 86 37 17 60 23 90 26 47 5 141 52 164 82 17 23 22 25 30 14 5 -8 7 -20
5 -26 -4 -11 -63 -44 -104 -58 -8 -3 -1 -6 15 -6 17 -1 45 8 63 19 43 26 54
25 74 -7 l17 -28 1 26 c0 14 -8 34 -18 45 -10 10 -37 51 -61 89 -120 200 -108
185 -149 185 -29 0 -41 -6 -56 -28z m51 -8 c-3 -3 -12 -4 -19 -1 -8 3 -5 6 6
6 11 1 17 -2 13 -5z"/>
<path d="M428 2185 c2 -41 8 -75 13 -75 10 0 13 109 3 134 -13 34 -19 13 -16
-59z"/>
<path d="M690 2130 c8 -5 20 -10 25 -10 6 0 3 5 -5 10 -8 5 -19 10 -25 10 -5
0 -3 -5 5 -10z"/>
<path d="M2670 2096 c0 -14 -4 -28 -10 -31 -5 -3 -10 -11 -10 -17 0 -6 9 -3
20 7 21 19 28 65 10 65 -5 0 -10 -11 -10 -24z"/>
<path d="M2933 2043 c-20 -8 -15 -23 7 -23 11 0 20 4 20 9 0 5 8 12 18 14 11
3 8 5 -8 5 -14 0 -31 -2 -37 -5z"/>
<path d="M532 2028 c7 -20 29 -25 171 -42 76 -9 150 -22 165 -31 l27 -14 -35
5 c-19 3 -45 7 -57 10 -12 2 -23 -1 -25 -7 -2 -7 -12 -7 -29 0 -21 7 -34 5
-67 -15 l-42 -25 16 -31 c17 -33 -1 -32 175 -12 l56 6 5 -32 c7 -44 -13 -50
-74 -25 -11 4 -18 3 -18 -3 0 -6 10 -14 23 -18 21 -7 21 -7 -8 -18 -47 -17
-155 -78 -155 -87 0 -19 71 -19 160 0 95 21 170 26 203 12 15 -6 12 -10 -21
-29 -21 -12 -42 -19 -46 -17 -3 3 -4 2 -1 -2 3 -4 -4 -12 -17 -19 -16 -9 -27
-9 -39 -1 -10 6 -22 8 -26 4 -4 -5 -2 -12 5 -16 9 -5 -3 -14 -35 -26 -65 -24
-114 -55 -107 -66 3 -6 40 -9 82 -7 81 3 104 -8 62 -29 -14 -7 -38 -24 -55
-37 l-30 -25 38 -1 c23 0 36 -4 32 -10 -3 -5 0 -10 7 -11 7 0 0 -5 -17 -10
-41 -13 -70 -39 -79 -72 -8 -32 8 -36 54 -12 30 16 72 75 68 96 -2 8 9 14 26
15 24 3 26 1 13 -9 -17 -14 -52 -67 -44 -67 3 0 22 9 41 21 l35 20 10 -38 c5
-21 13 -50 17 -65 4 -21 12 -28 29 -28 14 0 36 -14 55 -36 28 -33 35 -36 70
-31 45 6 165 61 190 87 3 3 25 21 50 40 24 19 52 43 62 52 14 14 22 15 57 5
22 -7 43 -16 47 -20 4 -4 18 -7 31 -7 18 0 23 -5 23 -27 0 -14 3 -24 6 -21 3
4 2 43 -2 87 l-7 81 -47 -6 c-46 -6 -48 -5 -61 25 -16 35 -104 88 -113 68 -2
-7 -5 -1 -6 13 0 21 -2 22 -10 9 -11 -19 -71 -33 -100 -24 -12 4 -20 15 -20
29 0 13 -3 37 -6 54 -5 23 -10 28 -25 25 -26 -7 -24 3 11 47 30 38 39 74 20
85 -5 3 -10 -3 -10 -13 0 -23 -27 -37 -44 -23 -7 6 -28 8 -48 6 -39 -3 -60 11
-62 43 -1 23 -131 168 -166 187 -16 8 -43 11 -73 8 -27 -3 -52 -1 -60 5 -7 6
-22 11 -32 10 -11 0 -55 4 -98 11 -100 14 -130 14 -125 -1z"/>
<path d="M3493 2010 c-13 -5 -23 -12 -23 -15 0 -10 27 -5 46 10 21 16 11 18
-23 5z"/>
<path d="M388 1951 c-11 -49 -10 -67 3 -54 6 6 9 28 7 49 l-3 39 -7 -34z"/>
<path d="M3390 1973 c-69 -4 -179 -24 -186 -34 -3 -5 8 -9 24 -9 25 0 29 -4
30 -31 0 -17 5 -36 10 -42 6 -8 3 -22 -9 -42 -10 -16 -25 -45 -34 -64 -8 -19
-18 -31 -21 -28 -11 10 -84 -32 -84 -48 0 -8 -12 -25 -26 -38 -15 -12 -33 -28
-40 -35 -7 -7 -16 -12 -19 -12 -3 0 -20 -11 -39 -25 -18 -14 -38 -25 -44 -25
-7 0 -12 -6 -12 -14 0 -20 -52 -38 -86 -30 -16 4 -36 15 -45 26 -9 10 -21 18
-27 18 -20 0 -71 -35 -83 -56 -6 -12 -29 -30 -51 -40 -22 -10 -47 -29 -56 -44
-53 -82 -154 -160 -207 -160 -18 0 -25 -5 -25 -20 0 -14 -7 -20 -22 -20 -13 0
-32 -7 -42 -15 -11 -8 -29 -15 -40 -15 -11 0 -34 -5 -53 -12 -44 -16 -52 -4
-18 28 21 20 36 25 62 22 21 -3 33 0 33 8 0 7 4 14 9 16 5 2 3 9 -5 16 -8 7
-14 8 -14 2 0 -5 -7 -10 -15 -10 -8 0 -15 4 -15 9 0 5 -18 7 -39 4 -22 -3 -56
-2 -77 1 l-36 7 28 30 c15 16 24 32 21 36 -8 8 -83 -71 -103 -109 -9 -17 -10
-29 -4 -33 18 -11 10 -30 -20 -47 -35 -20 -38 -34 -11 -41 24 -6 40 -72 22
-90 -19 -19 -12 -37 14 -37 14 0 29 -8 35 -19 9 -18 13 -19 42 -6 39 16 47 34
19 42 -25 6 -26 12 -6 40 14 20 99 75 121 79 6 1 21 5 32 8 11 4 23 2 27 -4
11 -17 39 -11 70 16 61 53 92 74 134 89 23 8 55 24 71 35 35 25 134 59 172 60
15 0 29 4 32 9 3 4 29 11 57 15 29 4 64 13 78 20 14 7 51 19 81 27 30 7 62 19
71 26 8 7 20 13 26 13 13 0 68 51 68 63 0 6 9 15 19 21 47 26 76 74 76 121 0
18 5 25 19 25 21 0 61 48 61 73 0 9 5 19 10 22 6 3 10 19 10 36 0 16 4 29 8
29 12 0 29 41 38 87 3 21 13 46 22 56 19 22 17 23 -38 20z m-1014 -818 c2 -5
-12 -18 -31 -27 -37 -18 -39 -17 -29 20 5 18 13 22 32 20 14 -2 27 -7 28 -13z"/>
<path d="M556 1891 c-3 -5 12 -11 34 -13 40 -4 53 5 24 16 -23 9 -52 7 -58 -3z"/>
<path d="M371 1813 c0 -25 1 -26 9 -8 12 27 12 35 0 35 -5 0 -10 -12 -9 -27z"/>
<path d="M1150 1811 c0 -11 5 -23 10 -26 6 -3 10 3 10 14 0 11 -4 23 -10 26
-5 3 -10 -3 -10 -14z"/>
<path d="M446 1792 c-27 -14 -44 -28 -37 -30 6 -2 26 6 44 17 19 11 58 25 88
30 l54 9 -50 0 c-35 0 -64 -7 -99 -26z"/>
<path d="M371 1738 c-1 -15 4 -30 9 -33 12 -7 12 12 0 40 -8 18 -9 17 -9 -7z"/>
<path d="M2252 1508 c5 -15 52 -23 76 -13 14 5 14 7 2 15 -23 15 -82 12 -78
-2z"/>
<path d="M1875 1488 c-28 -6 -56 -23 -93 -58 -29 -28 -60 -50 -68 -50 -7 0
-14 -4 -14 -10 0 -14 20 -12 70 5 24 8 64 17 91 19 38 2 57 11 88 37 22 19 40
36 40 39 2 13 -77 25 -114 18z"/>
<path d="M2150 1340 c0 -5 4 -10 9 -10 6 0 13 5 16 10 3 6 -1 10 -9 10 -9 0
-16 -4 -16 -10z"/>
<path d="M1690 1290 c8 -5 24 -10 36 -10 11 0 24 -3 27 -6 14 -14 118 -52 114
-41 -2 6 -30 20 -63 32 -68 26 -138 41 -114 25z"/>
<path d="M792 1232 c-24 -22 -29 -31 -20 -40 7 -7 20 -12 29 -12 10 0 21 -5
24 -10 13 -21 24 2 18 38 -8 53 -15 56 -51 24z"/>
<path d="M2511 1186 c-40 -14 -58 -43 -20 -31 25 8 69 34 69 41 0 6 -12 4 -49
-10z"/>
<path d="M2730 1182 c-153 -71 -311 -152 -320 -163 -3 -3 -63 -36 -135 -73
-154 -80 -255 -138 -255 -148 0 -3 8 -8 18 -10 19 -5 -123 -28 -169 -28 -31 0
-49 24 -32 41 6 6 33 10 62 11 l51 0 -2 54 c-2 41 -6 54 -18 54 -9 0 -26 7
-39 16 -22 16 -23 16 -16 -5 4 -12 2 -21 -4 -21 -6 0 -11 9 -11 20 0 11 -4 20
-10 20 -5 0 -10 -9 -10 -19 0 -21 19 -31 56 -31 13 0 24 -4 24 -10 0 -5 -3 -9
-7 -8 -10 2 -123 -12 -145 -18 -28 -8 -21 -24 10 -25 25 0 25 -1 6 -9 -30 -12
-41 -32 -18 -30 45 5 54 0 54 -28 l0 -28 -177 -2 c-182 -2 -237 6 -226 34 4
11 -4 13 -38 8 -33 -4 -61 0 -112 20 -112 42 -223 105 -288 163 -41 36 -68 53
-83 51 -27 -4 -32 -39 -10 -73 15 -23 15 -32 4 -86 -9 -42 -17 -58 -26 -55 -8
3 -11 0 -7 -10 3 -7 0 -14 -7 -14 -7 0 -10 -7 -6 -16 3 -8 -3 -34 -15 -57 -11
-23 -23 -69 -26 -102 -2 -33 -8 -69 -13 -80 -5 -11 -12 -38 -16 -60 -4 -22 -9
-47 -10 -55 -9 -46 -11 -157 -3 -178 8 -22 8 -23 -6 -12 -13 11 -15 8 -15 -21
0 -19 -3 -71 -7 -116 l-6 -83 1087 0 c947 0 1086 2 1086 15 0 8 -6 34 -14 57
-24 74 -30 110 -32 193 -1 104 -19 231 -37 275 -8 19 -18 56 -22 83 -4 26 -11
47 -15 47 -3 0 -8 15 -9 33 -1 17 -3 50 -5 72 -1 22 2 50 7 62 7 16 6 31 -6
54 l-15 33 -16 -37 c-17 -42 -51 -53 -44 -14 3 13 0 24 -6 25 -73 7 -126 48
-126 96 0 17 45 58 54 49 4 -4 11 -1 16 7 27 44 97 120 111 120 9 0 19 7 23
15 3 8 4 15 3 14 -1 0 -18 -8 -37 -17z m-306 -294 c-3 -4 -11 -5 -19 -1 -21 7
-19 12 4 10 11 0 18 -5 15 -9z m186 -3 c0 -8 -9 -15 -20 -15 -17 0 -19 2 -8
15 17 19 28 19 28 0z m53 -2 c-7 -2 -21 -2 -30 0 -10 3 -4 5 12 5 17 0 24 -2
18 -5z m-806 -199 c-3 -3 -12 -4 -19 -1 -8 3 -5 6 6 6 11 1 17 -2 13 -5z
m-653 -125 c-7 -11 -44 -12 -44 -1 0 15 11 20 30 15 11 -3 17 -9 14 -14z"/>
<path d="M1750 1161 c0 -5 9 -11 21 -14 16 -4 18 -3 8 9 -13 16 -29 19 -29 5z"/>
<path d="M1810 1130 c8 -5 20 -10 25 -10 6 0 3 5 -5 10 -8 5 -19 10 -25 10 -5
0 -3 -5 5 -10z"/>
<path d="M1930 1081 l-25 -7 25 -7 c36 -10 40 -9 40 8 0 16 -2 17 -40 6z"/>
<path d="M1769 1049 c-9 -5 -10 -9 -2 -9 6 0 14 -9 18 -20 5 -16 9 -18 25 -7
15 9 27 9 47 1 70 -28 69 -28 53 -12 -24 24 -124 58 -141 47z"/>
<path d="M830 1040 c-11 -7 -3 -9 27 -8 23 1 40 5 37 10 -7 11 -45 10 -64 -2z"/>
<path d="M940 1041 c17 -12 107 -32 155 -35 17 -2 37 -6 44 -10 17 -11 148
-21 139 -12 -3 4 -46 18 -95 32 -94 26 -270 44 -243 25z"/>
<path d="M2717 1044 c-3 -3 -4 -11 -1 -17 2 -7 -12 -23 -31 -36 -39 -27 -45
-46 -15 -54 11 -3 20 -1 20 5 0 6 6 8 14 5 22 -9 36 14 36 60 0 40 -8 52 -23
37z m8 -73 c3 -5 1 -12 -5 -16 -5 -3 -10 1 -10 9 0 18 6 21 15 7z"/>
<path d="M1949 977 c5 -5 19 -7 32 -5 20 3 19 5 -9 9 -20 3 -29 2 -23 -4z"/>
<path d="M1646 925 c-3 -8 3 -19 13 -24 21 -12 31 -5 31 21 0 22 -35 25 -44 3z"/>
<path d="M1972 914 c8 -7 108 -7 115 0 4 3 -22 6 -57 6 -35 0 -61 -3 -58 -6z"/>
<path d="M2705 910 c3 -5 8 -10 11 -10 2 0 4 5 4 10 0 6 -5 10 -11 10 -5 0 -7
-4 -4 -10z"/>
<path d="M1685 836 c-17 -31 -17 -35 -2 -57 l17 -23 -2 35 c0 19 2 44 6 57 11
32 2 27 -19 -12z"/>
<path d="M1650 850 c0 -5 5 -10 10 -10 6 0 10 5 10 10 0 6 -4 10 -10 10 -5 0
-10 -4 -10 -10z"/>
<path d="M1480 841 c-24 -8 -23 -8 13 -16 32 -6 155 1 145 10 -9 8 -136 13
-158 6z"/>
<path d="M1638 773 c6 -2 18 -2 25 0 6 3 1 5 -13 5 -14 0 -19 -2 -12 -5z"/>
<path d="M1718 773 c7 -3 16 -2 19 1 4 3 -2 6 -13 5 -11 0 -14 -3 -6 -6z"/>
</g>
</svg>
