<?xml version="1.0" standalone="no"?>
<!DOCTYPE svg PUBLIC "-//W3C//DTD SVG 20010904//EN"
 "http://www.w3.org/TR/2001/REC-SVG-20010904/DTD/svg10.dtd">
<svg version="1.0" xmlns="http://www.w3.org/2000/svg"
 width="1300.000000pt" height="910.000000pt" viewBox="0 0 1300.000000 910.000000"
 preserveAspectRatio="xMidYMid meet" fill="">

<g transform="translate(0.000000,910.000000) scale(0.100000,-0.100000)"
fill="#000000" stroke="none">
<path d="M6358 6503 c7 -3 16 -2 19 1 4 3 -2 6 -13 5 -11 0 -14 -3 -6 -6z"/>
<path d="M7130 6396 c0 -2 9 -6 20 -9 11 -3 18 -1 14 4 -5 9 -34 13 -34 5z"/>
<path d="M7200 6356 c0 -2 7 -7 16 -10 8 -3 12 -2 9 4 -6 10 -25 14 -25 6z"/>
<path d="M3498 6333 c7 -3 16 -2 19 1 4 3 -2 6 -13 5 -11 0 -14 -3 -6 -6z"/>
<path d="M7207 6319 c7 -7 15 -10 18 -7 3 3 -2 9 -12 12 -14 6 -15 5 -6 -5z"/>
<path fill="bg-primary-one" d="M9810 6317 c-3 -3 -60 -7 -127 -8 -67 -1 -137 -5 -155 -7 -36 -6 -43
-4 212 -72 58 -15 125 -34 150 -43 25 -8 80 -23 122 -32 46 -11 75 -22 71 -28
-3 -6 -1 -7 5 -3 10 6 167 -34 190 -48 5 -3 3 -33 -5 -68 -7 -35 -19 -92 -27
-128 -8 -36 -30 -141 -50 -235 -20 -93 -42 -192 -47 -220 -44 -205 -97 -446
-119 -540 -10 -44 -22 -98 -25 -120 -3 -22 -21 -110 -40 -195 -19 -85 -40
-180 -47 -210 -6 -30 -15 -62 -19 -71 -5 -11 -4 -21 4 -27 12 -10 108 -39 235
-71 40 -10 75 -21 79 -24 3 -4 1 -30 -5 -59 -6 -29 -21 -100 -32 -158 -22
-107 -44 -205 -61 -272 -11 -44 -25 -47 -104 -22 -85 26 -230 62 -236 58 -4
-2 -9 -26 -13 -53 -4 -28 -11 -53 -17 -57 -6 -3 -8 -12 -5 -19 2 -7 1 -28 -4
-47 -5 -18 -21 -87 -35 -153 -51 -241 -58 -271 -75 -339 l-18 -68 172 6 c94 4
219 9 277 12 l107 6 23 114 23 114 42 0 c81 0 174 41 174 78 0 17 -25 13 -82
-12 -56 -24 -46 0 11 29 45 22 81 57 81 77 0 16 -56 7 -80 -13 -14 -11 -38
-29 -53 -40 l-28 -21 16 38 c9 22 37 60 62 86 50 51 53 78 6 78 -17 0 -40 -12
-61 -32 -34 -32 -35 -32 -29 -8 3 14 11 53 18 88 l12 62 87 0 c48 0 127 3 177
6 l90 7 57 265 c31 146 53 269 49 273 -5 3 -78 26 -163 49 -85 24 -156 44
-157 44 -1 1 5 28 12 61 8 33 53 240 100 460 48 220 97 450 110 510 13 61 40
182 59 270 97 445 109 506 100 514 -5 5 -135 44 -289 86 -154 42 -318 89 -365
103 -68 20 -113 26 -220 30 -74 2 -137 1 -140 -1z"/>
<path d="M3055 6229 c-322 -112 -283 -85 -332 -230 -23 -68 -65 -189 -93 -269
-29 -80 -68 -192 -87 -250 -20 -58 -40 -110 -45 -117 -7 -8 -18 -5 -44 12
-105 72 -283 95 -414 56 -228 -69 -370 -262 -370 -498 0 -82 16 -147 54 -235
6 -13 -39 -52 -218 -190 -124 -95 -228 -182 -232 -193 -18 -46 7 -85 54 -85
15 0 61 29 121 75 53 41 104 81 115 88 16 12 17 16 5 35 -18 28 -4 40 20 17
19 -17 23 -15 108 52 113 89 114 89 127 71 40 -55 187 -127 294 -143 23 -4 42
-11 42 -15 0 -8 -93 -275 -110 -318 -7 -16 2 -87 32 -255 22 -127 44 -235 47
-239 5 -5 1086 142 1227 167 l32 5 16 -87 c69 -389 118 -658 120 -660 1 -2
144 17 317 42 337 47 462 78 472 116 3 12 14 19 31 19 26 0 52 32 41 50 -13
21 -27 9 -21 -17 6 -26 5 -26 -6 -8 -8 13 -22 20 -38 18 -77 -7 -120 -13 -160
-22 -53 -12 -121 -14 -118 -3 1 4 -5 41 -14 82 -9 41 -28 143 -42 225 -15 83
-31 170 -36 195 -5 25 -12 63 -15 85 -3 22 -9 56 -13 75 -5 20 -8 43 -6 53 3
21 10 21 -165 -2 -80 -11 -149 -17 -153 -15 -5 3 -14 1 -21 -5 -7 -5 -87 -19
-177 -31 -91 -12 -174 -23 -185 -26 -11 -2 -40 -6 -65 -9 -25 -2 -90 -11 -145
-20 -139 -22 -315 -45 -340 -45 -19 0 -23 9 -34 83 -7 45 -18 114 -26 152 -7
39 -21 108 -30 155 l-16 85 36 89 c19 49 35 94 35 99 0 5 6 23 14 40 8 18 26
66 40 107 13 41 59 172 101 290 43 118 82 233 88 255 6 22 13 42 17 45 3 3 17
39 29 80 13 41 31 93 41 115 9 22 23 58 30 80 7 22 18 54 26 70 7 17 17 46 22
65 6 19 27 82 47 140 53 147 131 369 166 469 17 46 29 89 27 96 -2 7 -85 -18
-223 -66z m-726 -890 c62 -22 131 -66 131 -84 0 -7 -16 -55 -35 -106 -19 -52
-61 -170 -94 -264 -32 -93 -69 -197 -81 -230 -12 -33 -28 -79 -36 -102 -15
-41 -17 -43 -58 -43 -101 0 -212 55 -293 144 -56 63 -88 128 -104 216 -31 178
68 368 234 450 108 53 221 60 336 19z"/>
<path d="M7405 6180 c3 -5 8 -10 11 -10 2 0 4 5 4 10 0 6 -5 10 -11 10 -5 0
-7 -4 -4 -10z"/>
<path d="M5709 6103 c-13 -16 -12 -17 4 -4 9 7 17 15 17 17 0 8 -8 3 -21 -13z"/>
<path d="M7455 6109 c-11 -16 -1 -19 13 -3 7 8 8 14 3 14 -5 0 -13 -5 -16 -11z"/>
<path d="M9295 6080 c-16 -17 -16 -20 -3 -15 9 4 19 13 22 21 7 19 2 18 -19
-6z"/>
<path d="M7540 6001 c0 -6 4 -13 10 -16 6 -3 7 1 4 9 -7 18 -14 21 -14 7z"/>
<path d="M6516 5984 c-58 -18 -145 -80 -177 -126 -13 -18 -26 -35 -29 -38 -4
-3 -22 -34 -41 -70 -19 -36 -36 -67 -39 -70 -4 -3 -12 -25 -19 -50 -7 -25 -17
-49 -21 -55 -10 -13 -55 -172 -69 -245 -21 -103 -52 -325 -61 -425 -8 -92 -13
-387 -7 -427 6 -36 17 -30 17 10 0 69 38 345 65 469 89 409 246 643 451 669
65 8 165 -17 219 -54 81 -56 163 -214 182 -348 13 -97 18 -44 11 129 -7 211
-9 225 -42 333 -33 111 -59 159 -120 219 -87 87 -201 115 -320 79z"/>
<path d="M5616 5963 c-6 -14 -5 -15 5 -6 7 7 10 15 7 18 -3 3 -9 -2 -12 -12z"/>
<path d="M7566 5947 c3 -10 9 -15 12 -12 3 3 0 11 -7 18 -10 9 -11 8 -5 -6z"/>
<path d="M3575 5768 c-3 -13 -19 -75 -35 -138 -17 -63 -32 -124 -35 -136 -46
-198 -104 -385 -238 -769 l-35 -101 22 -106 c19 -98 22 -105 41 -98 20 8 222
38 405 61 52 6 99 15 103 19 5 4 -10 106 -32 226 -23 121 -48 257 -56 304 -9
47 -20 108 -25 135 -15 79 -71 448 -86 563 -7 58 -20 76 -29 40z"/>
<path d="M9000 5755 c-7 -9 -8 -15 -2 -15 5 0 12 7 16 15 3 8 4 15 2 15 -2 0
-9 -7 -16 -15z"/>
<path d="M4215 5739 c-4 -6 -5 -12 -2 -15 2 -3 7 2 10 11 7 17 1 20 -8 4z"/>
<path d="M9457 5571 c-54 -71 -97 -134 -97 -140 0 -6 -4 -11 -9 -11 -4 0 -40
-42 -79 -92 -39 -51 -83 -106 -97 -123 -70 -82 -135 -154 -182 -203 -29 -30
-53 -58 -53 -61 0 -3 -24 -31 -53 -61 -51 -54 -175 -191 -216 -239 -29 -34
-27 -40 19 -47 22 -4 37 -10 34 -15 -3 -5 1 -6 9 -3 7 2 34 -2 58 -10 24 -8
78 -24 119 -35 41 -11 118 -32 170 -46 52 -14 116 -32 143 -41 50 -17 82 -13
74 10 -3 8 1 38 9 68 7 29 14 58 14 64 0 6 -25 17 -55 24 -31 7 -58 17 -61 22
-5 8 35 55 123 146 40 42 43 48 73 190 37 173 94 418 121 517 58 213 59 215
39 215 -4 0 -50 -58 -103 -129z"/>
<path d="M8860 5605 c-7 -9 -8 -15 -2 -15 5 0 12 7 16 15 3 8 4 15 2 15 -2 0
-9 -7 -16 -15z"/>
<path d="M8706 5432 c-3 -5 1 -9 9 -9 8 0 12 4 9 9 -3 4 -7 8 -9 8 -2 0 -6 -4
-9 -8z"/>
<path d="M8665 5390 c-3 -5 -1 -10 4 -10 6 0 11 5 11 10 0 6 -2 10 -4 10 -3 0
-8 -4 -11 -10z"/>
<path d="M8549 5263 c-13 -16 -12 -17 4 -4 9 7 17 15 17 17 0 8 -8 3 -21 -13z"/>
<path d="M7730 5025 c0 -107 -31 -333 -66 -490 -65 -284 -199 -580 -339 -744
-57 -67 -208 -211 -221 -211 -2 0 -37 -20 -77 -45 -41 -25 -78 -45 -82 -45 -4
0 -21 -6 -38 -14 -53 -24 -189 -63 -242 -70 -160 -19 -360 -12 -460 16 -22 6
-43 11 -48 10 -15 -4 -197 69 -255 102 -181 102 -325 258 -421 456 -58 122
-116 294 -104 313 2 4 0 13 -5 20 -11 13 -20 50 -27 112 -20 160 -24 153 -20
-35 8 -425 85 -706 262 -956 51 -74 178 -196 253 -245 195 -128 428 -187 700
-176 149 7 218 18 330 56 173 59 363 196 475 342 11 14 33 29 48 33 15 3 27
11 27 16 0 6 110 10 298 10 291 0 298 -1 347 -24 64 -29 129 -102 151 -168 40
-120 -19 -274 -127 -328 -21 -11 -40 -20 -43 -20 -2 0 -14 19 -25 43 -27 55
-81 87 -159 93 -53 5 -56 4 -38 -10 11 -9 23 -16 27 -16 5 0 20 -20 34 -43 18
-31 25 -58 25 -95 0 -66 -10 -90 -56 -135 l-38 -37 33 0 c91 0 175 62 187 138
5 34 12 42 46 57 52 22 110 83 139 143 24 49 31 135 17 201 -8 33 -8 33 15 17
36 -26 69 -37 127 -43 64 -7 90 -18 90 -39 0 -8 5 -12 11 -9 10 7 33 -15 213
-204 74 -77 101 -100 107 -90 5 8 9 20 9 27 0 24 45 80 81 103 21 13 37 30 36
39 -1 14 -6 15 -34 7 -21 -7 -33 -17 -33 -28 0 -24 -27 -49 -53 -49 -31 0
-267 237 -267 267 0 13 11 30 24 38 30 20 48 12 100 -45 25 -28 52 -46 84 -55
25 -8 48 -12 51 -10 2 3 -34 42 -80 88 -46 46 -98 101 -115 122 l-31 37 -7
-28 c-18 -73 -103 -134 -186 -134 -82 0 -166 60 -191 137 l-9 28 3 -32 3 -31
-40 33 c-89 71 -80 70 -411 73 -165 2 -304 7 -308 11 -4 4 12 41 36 82 123
207 208 470 257 794 26 166 41 668 21 688 -8 8 -11 -4 -11 -48z"/>
<path d="M8220 4905 c-7 -9 -8 -15 -2 -15 5 0 12 7 16 15 3 8 4 15 2 15 -2 0
-9 -7 -16 -15z"/>
<path d="M5323 4735 c0 -22 2 -30 4 -17 2 12 2 30 0 40 -3 9 -5 -1 -4 -23z"/>
<path d="M7961 4344 c0 -11 3 -14 6 -6 3 7 2 16 -1 19 -3 4 -6 -2 -5 -13z"/>
<path d="M7965 4230 c3 -5 8 -10 11 -10 2 0 4 5 4 10 0 6 -5 10 -11 10 -5 0
-7 -4 -4 -10z"/>
<path d="M4841 4184 c0 -11 3 -14 6 -6 3 7 2 16 -1 19 -3 4 -6 -2 -5 -13z"/>
<path d="M8118 4193 c7 -3 16 -2 19 1 4 3 -2 6 -13 5 -11 0 -14 -3 -6 -6z"/>
<path d="M4760 4074 c-36 -8 -95 -16 -132 -19 -37 -2 -74 -7 -81 -12 -18 -10
-11 -77 7 -70 6 2 75 26 153 53 78 27 139 52 137 56 -6 10 -3 10 -84 -8z"/>
<path d="M1768 4033 c-3 -42 -6 -48 -27 -51 -13 -2 -28 2 -33 10 -6 8 -8 -34
-4 -116 3 -71 9 -132 13 -136 4 -5 37 -10 73 -12 l66 -4 17 66 c9 36 23 86 31
112 15 47 14 48 -17 110 -31 61 -33 63 -74 66 l-42 3 -3 -48z"/>
<path d="M6348 3923 c7 -3 16 -2 19 1 4 3 -2 6 -13 5 -11 0 -14 -3 -6 -6z"/>
<path d="M8688 3870 c-21 -13 -58 -72 -58 -94 0 -23 27 -20 35 4 6 20 25 28
25 11 0 -11 57 -41 78 -41 11 0 13 -9 8 -45 -10 -60 14 -61 43 -2 25 52 26 78
6 122 -24 48 -92 71 -137 45z"/>
<path d="M8360 3663 c0 -9 19 -34 43 -56 23 -22 50 -52 59 -66 18 -26 18 -26
18 -3 0 13 -22 47 -52 81 -57 63 -68 71 -68 44z"/>
<path d="M4256 3568 c3 -4 -1 -8 -8 -8 -7 0 -21 -12 -31 -25 l-17 -24 36 -7
c41 -8 54 2 57 41 2 22 -2 28 -20 30 -12 1 -20 -2 -17 -7z"/>
<path d="M1335 3393 c-19 -21 -31 -41 -26 -46 13 -13 57 2 82 29 18 19 20 26
9 39 -18 22 -27 19 -65 -22z"/>
<path d="M4406 3245 c-3 -8 -2 -15 3 -15 5 0 14 7 21 15 10 12 10 15 -3 15 -8
0 -17 -7 -21 -15z"/>
<path d="M5223 3228 c-62 -65 -124 -239 -91 -259 49 -32 218 21 218 68 0 15
-46 18 -54 4 -3 -5 -19 -14 -36 -19 -51 -18 -34 6 24 35 31 15 59 37 65 50 15
32 15 33 -16 33 -24 0 -69 -27 -108 -66 -9 -9 -18 -14 -21 -12 -11 11 18 60
66 113 28 31 49 62 47 68 -2 7 -17 13 -33 15 -22 2 -37 -5 -61 -30z"/>
<path d="M4640 3221 c-16 -31 -12 -59 13 -75 25 -17 107 -37 118 -30 12 7 -29
70 -63 99 -36 30 -54 32 -68 6z"/>
<path d="M4853 3174 c-44 -34 -43 -54 1 -54 59 0 86 15 86 50 0 26 -4 30 -27
30 -16 0 -43 -12 -60 -26z"/>
<path d="M8886 3164 c-5 -14 -4 -15 9 -4 17 14 19 20 6 20 -5 0 -12 -7 -15
-16z"/>
<path d="M11312 3073 c-31 -74 -77 -229 -97 -330 l-19 -92 -34 30 c-35 31 -52
31 -52 0 0 -23 17 -37 53 -46 26 -7 27 -9 21 -56 -5 -34 -3 -49 5 -49 6 0 11
14 11 31 0 43 17 69 44 69 30 0 72 33 62 48 -10 17 -19 15 -61 -13 l-37 -26 7
43 c13 81 64 267 96 348 33 88 35 121 1 43z"/>
<path d="M7596 2974 c-11 -29 7 -35 100 -32 81 3 89 5 89 23 0 18 -8 20 -91
23 -79 2 -93 0 -98 -14z"/>
<path d="M8940 2943 c-17 -16 -35 -44 -40 -63 l-10 -34 30 36 c63 76 133 72
220 -13 28 -27 53 -49 55 -49 14 0 0 29 -28 60 -70 74 -95 90 -148 90 -39 0
-55 -5 -79 -27z"/>
<path d="M1780 2856 c0 -18 7 -25 31 -30 52 -10 79 -7 79 9 0 18 -50 45 -85
45 -20 0 -25 -5 -25 -24z"/>
<path d="M7596 2871 c-4 -5 -3 -17 0 -25 5 -14 21 -16 98 -14 86 3 91 4 94 26
3 21 1 22 -92 22 -52 0 -97 -4 -100 -9z"/>
<path d="M8796 2810 c7 -51 33 -108 60 -131 21 -17 115 -49 145 -49 12 0 19 7
19 19 0 14 -10 20 -45 24 -84 12 -137 56 -170 143 l-15 39 6 -45z"/>
<path d="M10712 2830 c-18 -11 -41 -34 -53 -52 -27 -44 -21 -125 15 -196 l26
-52 66 0 c127 0 194 32 194 93 0 84 -67 75 -185 -27 -32 -28 -56 -43 -52 -33
19 49 48 184 50 230 2 60 -10 68 -61 37z"/>
<path d="M8761 2684 c0 -11 3 -14 6 -6 3 7 2 16 -1 19 -3 4 -6 -2 -5 -13z"/>
<path d="M6262 2628 c-11 -29 -22 -69 -26 -88 -4 -19 7 3 23 50 33 92 35 124
3 38z"/>
<path d="M10512 2648 c-7 -7 -12 -29 -12 -51 0 -34 4 -40 35 -53 36 -15 115
-19 115 -6 0 11 -40 75 -63 100 -22 24 -56 29 -75 10z"/>
<path d="M6024 2583 c3 -10 8 -31 11 -48 15 -67 59 -205 91 -283 19 -45 34
-86 34 -90 0 -4 -14 -7 -31 -8 -42 -2 -58 -19 -37 -40 15 -16 19 -15 51 3 l34
21 17 -35 c9 -20 19 -33 22 -30 3 2 -3 20 -12 40 -16 34 -16 36 5 70 22 35 28
77 12 77 -9 0 -25 -41 -34 -85 -2 -15 -11 -4 -31 40 -38 83 -105 287 -113 341
-3 24 -10 44 -15 44 -5 0 -7 -8 -4 -17z"/>
<path d="M8920 2521 c0 -6 4 -13 10 -16 6 -3 7 1 4 9 -7 18 -14 21 -14 7z"/>
<path d="M6216 2464 c-4 -20 -5 -38 -3 -40 3 -3 8 11 11 32 4 20 5 38 3 40 -3
3 -8 -11 -11 -32z"/>
<path d="M8896 2427 c3 -10 9 -15 12 -12 3 3 0 11 -7 18 -10 9 -11 8 -5 -6z"/>
<path d="M6150 2415 c0 -9 11 -20 25 -25 14 -5 25 -15 25 -22 0 -10 2 -10 8
-1 4 6 20 16 35 22 15 6 27 16 27 22 0 7 -7 8 -17 4 -40 -17 -63 -17 -69 -1
-8 20 -34 21 -34 1z"/>
<path d="M8980 2352 c-26 -21 -64 -132 -50 -146 10 -10 105 55 113 78 5 13
-15 61 -32 79 -4 4 -18 -1 -31 -11z"/>
<path d="M8590 2284 c0 -7 -10 -19 -22 -25 -41 -22 -76 -79 -48 -79 5 0 34 9
65 21 55 20 56 22 53 57 -2 29 -7 36 -25 37 -13 1 -23 -4 -23 -11z"/>
</g>
</svg>
